<svg xmlns="http://www.w3.org/2000/svg" xmlns:xlink="http://www.w3.org/1999/xlink" version="1.1" id="Layer_1" x="0px" y="0px" viewBox="154.42529296875 336.9336242675781 283.60198974609375 189.07028198242188" style="enable-background:new 0 0 612 792;" xml:space="preserve">
<style type="text/css">
	.st0{fill:none;stroke:#000000;}
</style>
<path class="st0" d="M296.2261047,433.4727173"/>
<g>
	<rect x="154.425293" y="336.9336243" class="st0" width="283.6019897" height="189.0702972"/>
	<path class="st0" d="M296.2261047,431.4727173"/>
</g>
<g>
	<polygon class="st0" points="290.1831055,378.1289062 296.1674805,373.7617188 302.1522827,378.1289062 299.875,371.0664062    305.9530945,366.6992188 298.460907,366.6992188 296.1674805,359.5508118 293.8744812,366.7070007 286.3862,366.6992188    292.4603882,371.0664062  "/>
	<polygon class="st0" points="259.214386,386.4492188 265.1987,382.0820007 271.1791992,386.4492188 268.9057922,379.3867188    274.980011,375.0195007 267.487793,375.0195007 265.1947937,367.8633118 262.901886,375.0273132 255.4135895,375.0195007    261.487793,379.3867188  "/>
	<polygon class="st0" points="242.5385895,390.5742188 240.2455902,397.7383118 232.7572937,397.7304993 238.8314972,402.0977173    236.5541992,409.1602173 242.5385895,404.7929993 248.5228882,409.1602173 246.2455902,402.0977173 252.3197937,397.7304993    244.8314972,397.7304993  "/>
	<polygon class="st0" points="234.2260895,435.7227173 240.2064972,440.0898132 237.9330902,433.0273132 244.0072937,428.6602173    236.5189972,428.6602173 234.2260895,421.5039062 231.9330902,428.6758118 224.4408875,428.6602173 230.5189972,433.0273132    228.2416992,440.0898132  "/>
	<polygon class="st0" points="244.8314972,459.6836243 242.5385895,452.5273132 240.2455902,459.6914062 232.7572937,459.6836243    238.8314972,464.0508118 236.5541992,471.1133118 242.5385895,466.7383118 248.5228882,471.1133118 246.2455902,464.0508118    252.3197937,459.6836243  "/>
	<polygon class="st0" points="267.5346985,482.3867188 265.2416992,475.2383118 262.9526062,482.3945007 255.4603882,482.3867188    261.5346985,486.7539062 259.2612,493.8164062 265.2456055,489.4492188 271.2261047,493.8164062 268.9526062,486.7539062    275.026886,482.3867188  "/>
	<polygon class="st0" points="298.4647827,490.6133118 296.1713867,483.4570007 293.8822937,490.6210938 286.3901062,490.6133118    292.464386,494.9804993 290.1908875,502.0429993 296.175293,497.6758118 302.1562805,502.0429993 299.8789062,494.9804993    305.9570007,490.6133118  "/>
	<polygon class="st0" points="329.3945007,482.3867188 327.1054993,475.2383118 324.8085938,482.3945007 317.3241882,482.3867188    323.3945007,486.7539062 321.1210938,493.8164062 327.1054993,489.4492188 333.0897827,493.8164062 330.8085938,486.7539062    336.8866882,482.3867188  "/>
	<polygon class="st0" points="352.1054993,459.6836243 349.8085938,452.5273132 347.5116882,459.6914062 340.0272827,459.6836243    346.1054993,464.0508118 343.8241882,471.1133118 349.8085938,466.7383118 355.7929993,471.1133118 353.5116882,464.0508118    359.5897827,459.6836243  "/>
	<polygon class="st0" points="367.8163757,428.5742188 360.3241882,428.5742188 358.0272827,421.4179993 355.7382812,428.5820007    348.2460938,428.5742188 354.3241882,432.9414062 352.0507812,440.0039062 358.0272827,435.6289062 364.0116882,440.0039062    361.7382812,432.9414062  "/>
	<polygon class="st0" points="343.8241882,409.0664062 349.8085938,404.6992188 355.7929993,409.0664062 353.5116882,402.0039062    359.5897827,397.6445007 352.1054993,397.6445007 349.8085938,390.4883118 347.5116882,397.6523132 340.0272827,397.6445007    346.1054993,402.0039062  "/>
	<polygon class="st0" points="327.1914062,367.8711243 324.9022827,375.0352173 317.4101868,375.0195007 323.4804993,379.3945007    321.2070007,386.4570007 327.1991882,382.0820007 333.1757812,386.4570007 330.9022827,379.3945007 336.9804993,375.0195007    329.4804993,375.0195007  "/>
</g>
</svg>