<svg xmlns="http://www.w3.org/2000/svg" xmlns:xlink="http://www.w3.org/1999/xlink" version="1.1" id="layer" x="0px" y="0px" viewBox="208.29998779296875 245.19012451171875 222.44204711914062 127.20986938476562" style="enable-background:new 0 0 652 652;" xml:space="preserve">
<style type="text/css">
	.st0{fill:#5B7C80;}
	.st1{fill:#261E24;}
	.st2{fill:#FFFFFF;}
</style>

<rect x="303.3" y="288.7" class="st1" width="27.6" height="81.7"/>
<polyline class="st1" points="309.6,285.6 317.5,260.9 376.6,260.9 384.7,285.7 361.6,285.7 361.6,347.1 333.4,347.1 333.4,285.6   "/>
<polyline class="st1" points="364.2,348.9 353.1,348.9 353.1,370.4 397.5,370.4 402.9,349 381.9,349 381.9,338.7 390.3,338.7   395.4,318 382.9,318 382.9,308.4 405.5,308.4 396.3,281.9 385.9,281.9 387.9,287.6 364.2,287.6 "/>
<g>
	<path class="st1" d="M390.7,279.7c0,0,4.8-15.6,21.5-13.4c6,0.5,9.7,3,9.7,3l8,21.9c0,0-8-6.9-12.8,2.1c0,0-1.7,2.4,1.3,8.1   c2.9,5.7,11.1,24.1,11.1,24.1s1.9,4.7,1,9.3c-0.9,4.6-3.5,16.2-16.5,18c-8.5,1-9.5,0.3-9.5,0.3l1.6-6.2h-14.9l3.6-14.2h5.5   c0,0,3.9-1.1,2.5-6.7l-6.7-15.3h12.4l-10.7-30.9H390.7"/>
</g>
<g>
	<path class="st1" d="M281.4,368.6c0,2.1,1.8,3.8,4.1,3.8c2.2,0,4.1-1.7,4.1-3.8c0-2.1-1.8-3.8-4.1-3.8   C283.2,364.8,281.4,366.5,281.4,368.6 M282.3,368.6c0-1.6,1.4-2.9,3.1-2.9s3.1,1.3,3.1,2.9c0,1.6-1.4,2.9-3.1,2.9   S282.3,370.2,282.3,368.6"/>
	<path class="st1" d="M286.4,367.7l-0.2-0.2c-2.3-1.2-2.3,3.6,0.1,2.3l0.3-0.6h0.9l-0.2,0.7l-0.4,0.5l-0.6,0.3l-0.7,0.1l-0.9-0.2   l-0.6-0.4l-0.4-0.7l-0.1-0.8l0.1-0.8l0.4-0.7l0.6-0.5l0.9-0.2l0.7,0.1l0.5,0.3l0.4,0.4l0.2,0.6h-0.9L286.4,367.7"/>
	<path class="st2" d="M301.3,328.3c-10.3,9-27.3,14.1-27.3,14.1c-11.4,3.6-22,1.5-22,1.5c-14.3-2.7-23.1-8.3-30-13.4   c-6.9-5.1-12.5-12.8-12.5-12.8c7.8,7.5,16.4,11,16.4,11c15.3,7.4,25.2,7.7,40.4,3.8c16.6-4.4,33.9-21.2,35-22.2V328.3"/>
</g>
<g>
	<path class="st1" d="M301.3,298c0,0-8.7,8.7-18.8,9.2c-10.1,0.4-18.4-7.4-19.6-14.8c-1.2-7.4,1-14.8,9.1-19.6c0,0,9.6-6.6,22.6-0.2   l1.9,1l7.1-22.6c0,0-26.5-13.9-49.5,1.3c-12.4,8-20.3,22-20.3,38c0,4.6,0.7,8.5,1.9,11.8c2,6.8,5.8,12.6,10.3,16.7   c0,0,8.8,9.2,21.8,12.7c-0.5,0.2-1.1,0.3-1.6,0.5c-14,3.6-24.1,4-40-3.7c-0.1-0.1-10.3-4.5-17.9-11.9c0,0,6.5,9.7,13.4,14.7   c7.4,5.4,16.2,10.8,30.2,13.5c0.1,0,10.8,2.1,22.3-1.5c0.1,0,16.9-5,27.2-14v-1.4c-10.1,8.8-27.3,14.2-27.5,14.3   c-11.2,3.5-21.6,1.5-21.7,1.4c-13.8-2.6-22.4-7.9-29.7-13.3c-3.4-2.5-6.2-5.4-9-8.5c6.5,4.9,12.2,7.6,12.3,7.6   c16.3,7.9,26.5,7.5,40.8,3.8c15.7-4.2,31.8-18.8,34.9-21.7V298"/>
</g>
</svg>