<svg xmlns="http://www.w3.org/2000/svg" fill="none" viewBox="0 0 121 48">
  <g fill="#fff" clip-path="url(#a)">
    <path d="M96.179 40.1v7.055a.845.845 0 0 1-1.69 0V40.1a.845.845 0 1 1 1.69 0ZM47.139 13.288l2.178 5.396 2.291-5.396h1.428l2.303 5.414 2.172-5.414h1.728l-3.6 8.857h-.57l-2.753-6.485-2.767 6.485h-.551l-3.606-8.857h1.747ZM63.263 13.288v8.745h-1.69v-8.745h1.69ZM68.2 13.288v7.424h4.245v1.32H66.51v-8.744h1.69ZM78.547 13.288c.91 0 1.72.185 2.43.557a4.04 4.04 0 0 1 1.652 1.565c.392.672.588 1.427.588 2.266 0 .855-.197 1.614-.591 2.275a3.976 3.976 0 0 1-1.681 1.537c-.726.363-1.559.545-2.498.545h-3.562v-8.745h3.662Zm-.175 7.424c.935 0 1.685-.28 2.25-.842.566-.561.849-1.297.849-2.207 0-.943-.285-1.688-.855-2.235-.57-.546-1.336-.82-2.3-.82h-1.74v6.104h1.796ZM87.767 13.288v7.424h4.244v1.32h-5.935v-8.744h1.69ZM96.179 14.133v7.055a.845.845 0 0 1-1.69 0v-7.055a.845.845 0 0 1 1.69 0ZM104.76 13.288v1.32h-3.643v2.26h3.643v1.334h-3.643v3.83h-1.69v-8.744h5.333ZM113.234 13.288v1.32h-3.962v2.298h3.793v1.32h-3.793v2.486h4.05v1.32h-5.74v-8.744h5.652ZM96.179.845v7.056a.845.845 0 0 1-1.69 0V.845a.845.845 0 0 1 1.69 0ZM42.147 26.271v1.321h-3.105v7.425h-1.69v-7.425h-3.105v-1.32h7.9ZM47.862 26.271c.822 0 1.492.228 2.01.683.517.455.775 1.047.775 1.778 0 .496-.128.93-.385 1.299-.256.369-.637.66-1.142.873.28.15.528.355.745.613.217.259.486.695.807 1.309.535 1.06.931 1.79 1.19 2.19h-1.885c-.129-.191-.304-.498-.525-.92-.484-.93-.84-1.557-1.064-1.88-.226-.324-.443-.554-.652-.69a1.291 1.291 0 0 0-.72-.203h-.613v3.694h-1.69V26.27h3.149Zm-.382 3.731c.442 0 .79-.11 1.042-.331.253-.222.379-.524.379-.908 0-.4-.125-.7-.376-.898-.25-.199-.607-.298-1.07-.298h-1.052v2.435h1.077ZM58.684 26.271l3.862 8.746h-1.784l-.908-2.129h-3.887l-.845 2.129H53.35l3.606-8.746h1.727Zm-2.204 5.334h2.823l-1.477-3.462-1.346 3.462ZM68.517 26.271c.91 0 1.72.186 2.429.558a4.04 4.04 0 0 1 1.652 1.565c.392.672.589 1.427.589 2.266 0 .855-.197 1.614-.592 2.275a3.976 3.976 0 0 1-1.68 1.537c-.727.363-1.56.545-2.498.545h-3.562V26.27h3.662Zm-.175 7.425c.934 0 1.684-.28 2.25-.842.565-.562.848-1.297.848-2.207 0-.943-.285-1.688-.854-2.235-.57-.546-1.337-.82-2.3-.82h-1.741v6.104h1.796ZM81.699 26.271v1.321h-3.963v2.298h3.794v1.32h-3.794v2.486h4.05v1.32h-5.74v-8.744h5.653ZM85.529 26.271 88 31.887l2.41-5.616h1.772l-3.862 8.858h-.589l-3.987-8.857h1.784ZM96.179 27.117v7.055a.845.845 0 0 1-1.69 0v-7.055a.845.845 0 1 1 1.69 0ZM105.119 26.271v1.321h-3.962v2.298h3.793v1.32h-3.793v2.486h4.05v1.32h-5.74v-8.744h5.652ZM108.9 26.271l2.178 5.396 2.291-5.396h1.427l2.304 5.415 2.172-5.415H121l-3.599 8.858h-.57l-2.754-6.485-2.767 6.485h-.551l-3.606-8.857h1.747ZM5.078 13.17c.497 0 .983.057 1.46.17.475.112.988.304 1.54.575v1.59a7.255 7.255 0 0 0-1.494-.67 4.933 4.933 0 0 0-1.43-.206 3.64 3.64 0 0 0-1.685.385c-.5.257-.89.62-1.167 1.087a2.995 2.995 0 0 0-.417 1.558c0 .585.138 1.109.414 1.572.275.463.663.821 1.164 1.074.501.252 1.065.378 1.69.378.48 0 .939-.068 1.375-.206.436-.138.986-.386 1.65-.745v1.59a7.652 7.652 0 0 1-1.566.633c-.475.125-1.03.187-1.665.187-.922 0-1.747-.183-2.473-.55a4.13 4.13 0 0 1-1.712-1.588 4.322 4.322 0 0 1-.623-2.27c0-.88.213-1.671.641-2.372a4.302 4.302 0 0 1 1.766-1.622c.75-.38 1.593-.57 2.532-.57ZM12.771 13.283v8.747h-1.69v-8.747h1.69ZM23.25 13.283v1.321h-3.105v7.426h-1.69v-7.426h-3.106v-1.32h7.901ZM31.444 13.283v1.321H27.48v2.298h3.794v1.321H27.48v2.486h4.05v1.32h-5.74v-8.746h5.653ZM36.901 13.17c.852 0 1.672.213 2.461.639v1.503c-.906-.547-1.71-.82-2.41-.82-.426 0-.76.082-.999.247a.764.764 0 0 0-.36.66c0 .33.223.635.67.914.125.084.607.318 1.446.702.718.338 1.236.713 1.553 1.127.317.413.476.91.476 1.49 0 .75-.27 1.357-.811 1.819-.54.46-1.24.691-2.1.691-.56 0-1.041-.061-1.444-.184s-.854-.335-1.355-.636v-1.665c.935.776 1.815 1.164 2.642 1.164.413 0 .747-.09 1.002-.269a.833.833 0 0 0 .381-.714c0-.405-.22-.734-.663-.989-.367-.2-.841-.44-1.421-.72-.69-.313-1.204-.678-1.544-1.096a2.231 2.231 0 0 1-.51-1.452c0-.735.273-1.32.82-1.756.547-.436 1.27-.655 2.166-.655Z"/>
  </g>
  <defs>
    <clipPath id="a">
      <path fill="#fff" d="M.139 0h120.86v48H.14z"/>
    </clipPath>
  </defs>
</svg>