<svg xmlns="http://www.w3.org/2000/svg" fill="none" viewBox="0 0 56 32">
  <path fill="#fff" d="M23.836 31.515h6.924v-20.55h-6.924v20.55Z"/>
  <path fill="#fff" d="m25.414 10.185 1.973-6.204h14.834l2.038 6.237h-5.79v15.429h-7.07V10.185h-5.985Z"/>
  <path fill="#fff" d="M39.108 26.103h-2.786v5.41h11.147l1.344-5.389h-5.27v-2.586h2.126l1.28-5.215h-3.145v-2.412h5.682l-2.321-6.65h-2.602l.498 1.435h-5.953v15.407Z"/>
  <path fill="#fff" d="M45.756 8.708s1.214-3.923 5.4-3.358c1.501.136 2.428.76 2.428.76l1.995 5.499s-2.016-1.739-3.21.521c0 0-.41.609.326 2.043.738 1.434 2.798 6.063 2.798 6.063s.477 1.173.26 2.325c-.217 1.152-.867 4.064-4.142 4.52-2.125.24-2.385.065-2.385.065l.411-1.565h-3.73l.901-3.563h1.376s.976-.283.63-1.695l-1.692-3.847h3.122l-2.688-7.768h-1.8ZM18.578 31.044c0-.398.352-.722.786-.722.433 0 .786.324.786.722 0 .398-.353.722-.786.722-.434 0-.786-.324-.786-.722Zm-.233 0c0 .527.457.956 1.019.956.562 0 1.02-.429 1.02-.956 0-.527-.458-.956-1.02-.956s-1.02.429-1.02.956Z"/>
  <path fill="#fff" d="M19.602 30.822a.227.227 0 0 0-.122-.092.25.25 0 0 0-.081-.014.249.249 0 0 0-.22.106.332.332 0 0 0-.05.11.527.527 0 0 0 0 .252c.01.04.027.076.05.108a.25.25 0 0 0 .22.105c.07 0 .125-.02.165-.062a.28.28 0 0 0 .073-.163h.223a.493.493 0 0 1-.046.17.407.407 0 0 1-.238.211.538.538 0 0 1-.177.028.558.558 0 0 1-.217-.04.466.466 0 0 1-.264-.276.58.58 0 0 1-.035-.204.6.6 0 0 1 .035-.21.462.462 0 0 1 .264-.28.55.55 0 0 1 .217-.04c.057 0 .112.007.164.023a.45.45 0 0 1 .138.07.383.383 0 0 1 .15.268h-.223a.176.176 0 0 0-.026-.07ZM23.344 13.303s-2.181 2.195-4.719 2.304c-2.537.109-4.619-1.847-4.922-3.716-.304-1.869.26-3.716 2.277-4.933 0 0 2.407-1.652 5.66-.044l.477.24 1.777-5.688s-6.647-3.5-12.414.317C8.375 3.79 6.39 7.303 6.39 11.336c0 1.162.167 2.144.477 2.976.513 1.71 1.448 3.165 2.586 4.198 0 0 2.207 2.308 5.468 3.198-.131.04-.263.079-.395.114-3.521.899-6.042 1-10.042-.94-.024-.013-2.577-1.143-4.485-2.983 0 0 1.64 2.43 3.362 3.695 1.859 1.364 4.063 2.719 7.575 3.39.025.004 2.72.532 5.593-.37.037-.01 4.24-1.266 6.814-3.528v-.341c-2.523 2.218-6.857 3.577-6.897 3.588-2.803.88-5.428.369-5.454.363-3.457-.66-5.627-1.994-7.459-3.338-.843-.619-1.548-1.362-2.263-2.14 1.638 1.24 3.062 1.914 3.083 1.925 4.085 1.982 6.655 1.879 10.247.962 3.945-1.046 7.977-4.73 8.743-5.457v-.017c.004-.003 0-.006 0-.006v-3.322Z"/>
</svg>