<svg xmlns="http://www.w3.org/2000/svg" fill="none" viewBox="0 0 124 32">
  <g clip-path="url(#a)">
    <mask id="b" width="57" height="32" x="0" y="0" maskUnits="userSpaceOnUse" style="mask-type:luminance">
      <path fill="#fff" d="M56.348 0H.424v32h55.924V0Z"/>
    </mask>
    <g fill="#fff" mask="url(#b)">
      <path d="M24.309 31.516h6.938V10.965h-6.938v20.55Z"/>
      <path d="m25.89 10.185 1.977-6.204H42.73l2.042 6.237h-5.802v15.429h-7.084V10.185h-5.998Z"/>
      <path d="M39.612 26.103H36.82v5.411h11.17l1.347-5.389h-5.28V23.54h2.129l1.282-5.216h-3.151v-2.412h5.693l-2.325-6.65h-2.608l.5 1.435h-5.965v15.407Z"/>
      <path d="M46.273 8.708s1.216-3.923 5.41-3.358c1.505.136 2.434.76 2.434.76l2 5.499s-2.021-1.739-3.216.521c0 0-.414.609.325 2.043.74 1.434 2.804 6.063 2.804 6.063s.478 1.173.26 2.325c-.216 1.152-.868 4.064-4.15 4.52-2.13.24-2.39.065-2.39.065l.413-1.564h-3.738l.903-3.564h1.379s.977-.283.63-1.695l-1.695-3.846h3.129l-2.695-7.77h-1.803ZM19.04 31.044c0-.398.353-.722.787-.722.434 0 .787.324.787.722 0 .398-.353.722-.787.722-.434 0-.788-.324-.788-.722Zm-.235 0c0 .527.459.956 1.022.956s1.021-.429 1.021-.956c0-.527-.458-.956-1.021-.956s-1.022.429-1.022.956Z"/>
      <path d="M20.065 30.822a.226.226 0 0 0-.121-.093.253.253 0 0 0-.082-.013.279.279 0 0 0-.132.029.247.247 0 0 0-.089.077.33.33 0 0 0-.049.11.526.526 0 0 0 0 .251c.01.04.027.076.05.108a.25.25 0 0 0 .088.077.28.28 0 0 0 .132.029c.07 0 .126-.02.166-.062a.279.279 0 0 0 .072-.163h.224a.492.492 0 0 1-.046.17.407.407 0 0 1-.238.21.54.54 0 0 1-.178.029.559.559 0 0 1-.217-.04.467.467 0 0 1-.265-.276.579.579 0 0 1-.035-.205.6.6 0 0 1 .035-.209.466.466 0 0 1 .265-.28.551.551 0 0 1 .217-.041c.058 0 .113.008.164.024a.45.45 0 0 1 .138.07.38.38 0 0 1 .151.267h-.223a.176.176 0 0 0-.027-.07ZM23.816 20.924c-2.584 2.266-6.873 3.55-6.873 3.55-2.876.902-5.533.366-5.533.366-3.583-.683-5.8-2.097-7.531-3.364C2.148 20.208.727 18.252.727 18.252c1.95 1.877 4.127 2.76 4.127 2.76 3.852 1.866 6.337 1.926 10.164.951 4.164-1.102 8.517-5.324 8.797-5.59v4.55Z"/>
      <path d="M23.816 13.303s-2.186 2.195-4.729 2.304c-2.542.109-4.628-1.847-4.933-3.716-.304-1.869.261-3.716 2.282-4.933 0 0 2.412-1.652 5.672-.043l.478.239 1.78-5.688s-6.66-3.5-12.439.317c-3.112 2.007-5.099 5.52-5.099 9.553 0 1.162.167 2.145.477 2.976.515 1.71 1.452 3.165 2.592 4.198 0 0 2.211 2.308 5.48 3.198-.133.04-.265.08-.397.114-3.528.9-6.054 1-10.063-.94-.024-.013-2.582-1.143-4.493-2.983 0 0 1.642 2.43 3.368 3.695 1.863 1.364 4.072 2.719 7.591 3.39.025.004 2.726.532 5.604-.37.037-.01 4.25-1.265 6.829-3.528v-.341c-2.528 2.218-6.871 3.577-6.912 3.588-2.809.88-5.438.369-5.465.363-3.464-.66-5.639-1.994-7.474-3.338-.845-.619-1.552-1.362-2.268-2.14 1.641 1.24 3.068 1.914 3.09 1.925 4.093 1.982 6.669 1.879 10.267.962 3.953-1.046 7.993-4.73 8.762-5.457v-.017c.003-.003 0-.006 0-.006v-3.322Z"/>
    </g>
    <path fill="#fff" d="M67.75 13.608c-.63 0-1.17-.111-1.62-.333a2.285 2.285 0 0 1-1.026-1.035c-.234-.474-.351-1.083-.351-1.827 0-1.086.264-1.89.792-2.412s1.263-.783 2.205-.783c.51 0 .969.087 1.377.26.414.175.74.439.98.793.247.348.37.792.37 1.332H69.28c0-.3-.066-.552-.198-.756a1.206 1.206 0 0 0-.531-.477 1.808 1.808 0 0 0-.783-.162c-.408 0-.747.08-1.017.243-.27.156-.471.39-.603.702-.126.312-.19.699-.19 1.16v.199c0 .468.064.858.19 1.17.132.312.33.546.594.702.27.156.612.234 1.026.234.312 0 .585-.051.819-.153.234-.108.414-.264.54-.468a1.41 1.41 0 0 0 .198-.765h1.152c0 .54-.12.987-.36 1.34-.24.349-.567.61-.981.784-.408.168-.87.252-1.386.252Zm3.768-.108V7.326h1.17v2.51h2.88v-2.51h1.17V13.5h-1.17v-2.655h-2.88V13.5h-1.17Zm6.592 0V7.326h4.815v.999H79.28v1.52h3.25v1h-3.25V12.5h3.7v.999h-4.87Zm8.765.108c-.63 0-1.17-.111-1.62-.333a2.285 2.285 0 0 1-1.026-1.035c-.234-.474-.351-1.083-.351-1.827 0-1.086.264-1.89.792-2.412s1.263-.783 2.205-.783c.51 0 .969.087 1.377.26.414.175.74.439.98.793.247.348.37.792.37 1.332h-1.197c0-.3-.066-.552-.198-.756a1.206 1.206 0 0 0-.531-.477 1.808 1.808 0 0 0-.783-.162c-.408 0-.747.08-1.017.243-.27.156-.471.39-.603.702-.126.312-.19.699-.19 1.16v.199c0 .468.064.858.19 1.17.132.312.33.546.594.702.27.156.612.234 1.026.234.312 0 .585-.051.819-.153.234-.108.414-.264.54-.468a1.41 1.41 0 0 0 .198-.765h1.152c0 .54-.12.987-.36 1.34-.24.349-.567.61-.981.784-.408.168-.87.252-1.386.252Zm3.768-.108V7.326h1.17v2.862l2.736-2.862h1.431l-2.394 2.502 2.44 3.672h-1.387l-1.845-2.853-.98.864V13.5h-1.17Zm6.258 0V7.326h1.17v5.157h3.096V13.5h-4.266Zm5.133 0V7.326h1.17V13.5h-1.17Zm4.844.108a4.35 4.35 0 0 1-.981-.108 2.715 2.715 0 0 1-.828-.351 1.843 1.843 0 0 1-.567-.594 1.668 1.668 0 0 1-.207-.846V11.6a.541.541 0 0 0 .009-.081h1.179a.552.552 0 0 1-.009.072v.08c0 .199.057.37.171.514.114.138.279.246.495.324.216.072.471.108.765.108.198 0 .372-.012.522-.036.156-.024.288-.057.396-.1.114-.047.207-.101.279-.161a.574.574 0 0 0 .153-.216.594.594 0 0 0 .054-.252.603.603 0 0 0-.162-.432 1.279 1.279 0 0 0-.441-.288 4.177 4.177 0 0 0-.621-.207 37.59 37.59 0 0 0-.711-.198 7.574 7.574 0 0 1-.711-.234 3.243 3.243 0 0 1-.621-.342 1.492 1.492 0 0 1-.432-.495 1.538 1.538 0 0 1-.162-.73c0-.287.06-.54.18-.755.126-.216.3-.393.522-.531a2.46 2.46 0 0 1 .792-.315 4.2 4.2 0 0 1 .981-.108c.33 0 .639.036.927.108.294.066.552.174.774.324.222.144.396.33.522.558.126.222.189.489.189.8v.109h-1.161v-.09a.635.635 0 0 0-.162-.441.982.982 0 0 0-.441-.28 1.966 1.966 0 0 0-.657-.098c-.27 0-.501.027-.693.08a.928.928 0 0 0-.441.226.474.474 0 0 0-.153.36.5.5 0 0 0 .162.378c.108.102.252.189.432.26.186.073.393.139.621.199.234.06.471.126.711.198.246.066.483.144.711.234.234.09.441.204.621.342.186.132.333.297.441.495.108.198.162.435.162.71 0 .463-.114.835-.342 1.117-.222.282-.531.486-.927.612a4.36 4.36 0 0 1-1.341.189Zm5.211-.108V8.334h-1.971V7.326h5.121v1.008h-1.98V13.5h-1.17ZM67.867 24.608c-.642 0-1.197-.114-1.665-.342a2.431 2.431 0 0 1-1.08-1.062c-.246-.474-.37-1.071-.37-1.791 0-.726.124-1.323.37-1.791a2.38 2.38 0 0 1 1.08-1.053c.468-.234 1.023-.351 1.665-.351.648 0 1.203.117 1.665.35.468.229.825.58 1.07 1.054.253.468.379 1.065.379 1.79 0 .72-.126 1.318-.378 1.792a2.382 2.382 0 0 1-1.071 1.062c-.462.228-1.017.342-1.665.342Zm0-.99c.312 0 .585-.045.819-.135.24-.09.44-.222.603-.396a1.8 1.8 0 0 0 .369-.657c.084-.264.126-.567.126-.91v-.197c0-.348-.042-.654-.126-.918a1.707 1.707 0 0 0-.37-.657 1.51 1.51 0 0 0-.602-.405 2.275 2.275 0 0 0-.82-.135 2.35 2.35 0 0 0-.827.135 1.52 1.52 0 0 0-.594.405 1.707 1.707 0 0 0-.37.657 3.25 3.25 0 0 0-.116.918v.198c0 .342.039.645.117.909a1.8 1.8 0 0 0 .369.657c.162.174.36.306.594.396.24.09.516.135.828.135Zm4.205.882v-6.174h4.437v.999h-3.267v1.656h2.943v.999h-2.943v2.52h-1.17Zm9.318.108a4.35 4.35 0 0 1-.981-.108 2.715 2.715 0 0 1-.828-.351 1.843 1.843 0 0 1-.567-.594 1.668 1.668 0 0 1-.207-.846V22.6a.541.541 0 0 0 .009-.081h1.179a.552.552 0 0 1-.01.072v.08c0 .199.058.37.172.514.114.138.279.246.495.324.216.072.47.108.765.108.198 0 .372-.012.522-.036.156-.024.288-.057.396-.1.114-.047.207-.101.279-.161a.574.574 0 0 0 .153-.216.594.594 0 0 0 .054-.252.603.603 0 0 0-.162-.432 1.279 1.279 0 0 0-.441-.288 4.177 4.177 0 0 0-.621-.207 37.59 37.59 0 0 0-.711-.198 7.574 7.574 0 0 1-.711-.234 3.243 3.243 0 0 1-.621-.342 1.492 1.492 0 0 1-.432-.495 1.538 1.538 0 0 1-.162-.73c0-.287.06-.54.18-.755.126-.216.3-.393.522-.531a2.46 2.46 0 0 1 .792-.315 4.2 4.2 0 0 1 .98-.108c.33 0 .64.036.928.108.294.066.552.174.774.324.222.144.396.33.522.558.126.222.189.489.189.8v.109h-1.161v-.09a.635.635 0 0 0-.162-.441.982.982 0 0 0-.441-.28 1.966 1.966 0 0 0-.657-.098c-.27 0-.501.027-.693.08a.928.928 0 0 0-.441.226.474.474 0 0 0-.153.36.5.5 0 0 0 .162.378c.108.102.252.189.432.26.186.073.393.139.62.199.235.06.472.126.712.198.246.066.483.144.71.234.235.09.442.204.622.342.186.132.333.297.44.495.109.198.163.435.163.71 0 .463-.114.835-.342 1.117-.222.282-.531.486-.927.612a4.36 4.36 0 0 1-1.341.189Zm3.699-.108v-6.174h3.096c.456 0 .83.08 1.125.243.3.162.525.39.675.684.15.294.225.645.225 1.053 0 .402-.078.753-.234 1.053-.156.3-.39.534-.702.702-.306.162-.69.243-1.152.243h-1.863V24.5h-1.17Zm1.17-3.195h1.827c.3 0 .53-.087.693-.261.168-.18.252-.426.252-.738 0-.21-.036-.387-.108-.531a.768.768 0 0 0-.315-.333 1.05 1.05 0 0 0-.522-.117h-1.827v1.98Zm4.859 3.195v-6.174h4.815v.999h-3.645v1.52h3.249v1h-3.25V23.5h3.7v.999h-4.87Zm8.765.108c-.63 0-1.17-.111-1.62-.333a2.285 2.285 0 0 1-1.026-1.035c-.234-.474-.351-1.083-.351-1.827 0-1.086.264-1.89.792-2.412s1.263-.783 2.205-.783c.51 0 .969.087 1.377.26.414.175.741.439.981.793.246.348.369.792.369 1.332h-1.197c0-.3-.066-.552-.198-.756a1.206 1.206 0 0 0-.531-.477 1.809 1.809 0 0 0-.783-.162c-.408 0-.747.08-1.017.243-.27.156-.471.39-.603.702-.126.312-.19.699-.19 1.16v.199c0 .468.064.858.19 1.17.132.312.33.546.594.702.27.156.612.234 1.026.234.312 0 .585-.051.819-.153.234-.108.414-.264.54-.468a1.41 1.41 0 0 0 .198-.765h1.152c0 .54-.12.987-.36 1.34-.24.349-.567.61-.981.784-.408.168-.87.252-1.386.252Zm3.768-.108v-6.174h1.17V24.5h-1.17Zm2.54 0v-6.174h4.815v.999h-3.645v1.52h3.249v1h-3.249V23.5h3.699v.999h-4.869Zm8.351.108a4.35 4.35 0 0 1-.981-.108 2.715 2.715 0 0 1-.828-.351 1.843 1.843 0 0 1-.567-.594 1.668 1.668 0 0 1-.207-.846V22.6a.541.541 0 0 0 .009-.081h1.179a.552.552 0 0 1-.009.072v.08c0 .199.057.37.171.514.114.138.279.246.495.324.216.072.471.108.765.108.198 0 .372-.012.522-.036.156-.024.288-.057.396-.1.114-.047.207-.101.279-.161a.574.574 0 0 0 .153-.216.594.594 0 0 0 .054-.252.603.603 0 0 0-.162-.432 1.279 1.279 0 0 0-.441-.288 4.177 4.177 0 0 0-.621-.207 37.59 37.59 0 0 0-.711-.198 7.574 7.574 0 0 1-.711-.234 3.243 3.243 0 0 1-.621-.342 1.492 1.492 0 0 1-.432-.495 1.538 1.538 0 0 1-.162-.73c0-.287.06-.54.18-.755.126-.216.3-.393.522-.531a2.46 2.46 0 0 1 .792-.315 4.2 4.2 0 0 1 .981-.108c.33 0 .639.036.927.108.294.066.552.174.774.324.222.144.396.33.522.558.126.222.189.489.189.8v.109h-1.161v-.09a.635.635 0 0 0-.162-.441.982.982 0 0 0-.441-.28 1.966 1.966 0 0 0-.657-.098c-.27 0-.501.027-.693.08a.928.928 0 0 0-.441.226.474.474 0 0 0-.153.36.5.5 0 0 0 .162.378c.108.102.252.189.432.26.186.073.393.139.621.199.234.06.471.126.711.198.246.066.483.144.711.234.234.09.441.204.621.342.186.132.333.297.441.495.108.198.162.435.162.71 0 .463-.114.835-.342 1.117-.222.282-.531.486-.927.612a4.36 4.36 0 0 1-1.341.189Z"/>
  </g>
  <defs>
    <clipPath id="a">
      <path fill="#fff" d="M.424 0h123.5v32H.424z"/>
    </clipPath>
  </defs>
</svg>