<svg xmlns="http://www.w3.org/2000/svg" width="225" height="64" fill="none">
   <g fill="#fff" clip-path="url(#a)">
      <path d="M47.77 63.03h13.876v-41.1H47.77v41.1Z"/>
      <path d="m50.931 20.37 3.955-12.408h29.728L88.7 20.435H77.095v30.859H62.926V20.37H50.931Z"/>
      <path d="M78.377 52.206h-5.585v10.822h22.34l2.694-10.778h-10.56v-5.172h4.258l2.565-10.431h-6.302v-4.824h11.387l-4.65-13.3h-5.216l1 2.869h-11.93v30.814Z"/>
      <path d="M91.698 17.415S94.132 9.57 102.52 10.7c3.01.273 4.868 1.521 4.868 1.521l3.999 10.996s-4.042-3.477-6.433 1.043c0 0-.826 1.217.652 4.086 1.478 2.868 5.607 12.126 5.607 12.126s.956 2.346.521 4.65c-.434 2.303-1.738 8.127-8.301 9.04-4.26.478-4.78.13-4.78.13l.825-3.129h-7.476l1.806-7.127h2.758s1.956-.566 1.26-3.39l-3.39-7.693h6.259l-5.39-15.538h-3.607ZM37.232 62.088c0-.796.706-1.444 1.575-1.444.868 0 1.575.648 1.575 1.444 0 .796-.707 1.444-1.575 1.444-.869 0-1.575-.648-1.575-1.444Zm-.468 0c0 1.054.916 1.912 2.043 1.912 1.126 0 2.042-.858 2.042-1.912 0-1.054-.916-1.912-2.042-1.912-1.127 0-2.043.858-2.043 1.912Z"/>
      <path d="M39.283 61.644a.45.45 0 0 0-.243-.186.506.506 0 0 0-.163-.026.558.558 0 0 0-.265.057.493.493 0 0 0-.177.155.662.662 0 0 0-.098.22 1.048 1.048 0 0 0 0 .503c.02.08.053.152.098.215a.5.5 0 0 0 .177.154.56.56 0 0 0 .265.057.437.437 0 0 0 .33-.123.558.558 0 0 0 .147-.327h.447a.988.988 0 0 1-.091.34.815.815 0 0 1-.477.423 1.08 1.08 0 0 1-.356.056c-.161 0-.306-.027-.434-.08a.935.935 0 0 1-.53-.552 1.158 1.158 0 0 1-.07-.41c0-.15.023-.289.07-.417a.93.93 0 0 1 .529-.561c.13-.055.274-.082.435-.082.116 0 .225.016.328.048a.903.903 0 0 1 .277.139.764.764 0 0 1 .301.536h-.447a.35.35 0 0 0-.053-.14ZM46.784 41.847c-5.167 4.534-13.744 7.101-13.744 7.101-5.752 1.804-11.066.732-11.066.732-7.166-1.365-11.603-4.193-15.064-6.728C3.45 40.417.606 36.505.606 36.505c3.9 3.754 8.254 5.521 8.254 5.521 7.704 3.73 12.675 3.851 20.329 1.901 8.327-2.205 17.034-10.65 17.595-11.18v9.1Z"/>
      <path d="M46.784 26.607s-4.371 4.39-9.457 4.607c-5.085.217-9.257-3.694-9.866-7.432-.608-3.738.522-7.432 4.564-9.866 0 0 4.824-3.303 11.344-.087l.956.478 3.561-11.375s-13.321-7.001-24.88.633C16.785 7.58 12.81 14.607 12.81 22.672c0 2.323.334 4.289.954 5.952 1.03 3.419 2.903 6.33 5.184 8.396 0 0 4.422 4.617 10.959 6.396-.264.081-.528.158-.792.228-7.057 1.798-12.109 2.001-20.126-1.881-.049-.026-5.165-2.285-8.988-5.965 0 0 3.285 4.862 6.737 7.39 3.726 2.728 8.143 5.438 15.182 6.779.05.01 5.45 1.066 11.208-.74.074-.02 8.5-2.53 13.657-7.055v-.682c-5.056 4.436-13.742 7.154-13.823 7.176-5.617 1.762-10.877.737-10.93.727-6.927-1.32-11.278-3.99-14.948-6.677-1.69-1.238-3.103-2.724-4.536-4.28 3.282 2.481 6.136 3.827 6.179 3.85 8.187 3.964 13.338 3.758 20.535 1.924 7.906-2.093 15.987-9.459 17.523-10.914v-.034c.007-.007 0-.011 0-.011v-6.644Z"/>
   </g>
   <path fill="#fff" d="M132.24 27V16.668h-3.942v-2.016h10.242v2.016h-3.96V27h-2.34Zm8.121 0V14.652h6.498c.912 0 1.668.156 2.268.468.6.312 1.05.756 1.35 1.332.3.576.45 1.254.45 2.034 0 .804-.18 1.518-.54 2.142-.36.612-.888 1.074-1.584 1.386L151.359 27h-2.556l-2.268-4.59h-3.834V27h-2.34Zm2.34-6.552h3.978c.6 0 1.062-.174 1.386-.522.324-.348.486-.828.486-1.44 0-.396-.072-.726-.216-.99a1.452 1.452 0 0 0-.63-.63c-.276-.144-.618-.216-1.026-.216h-3.978v3.798ZM151.985 27l4.806-12.348h2.952L164.567 27h-2.538l-.99-2.628h-5.652l-.99 2.628h-2.412Zm4.14-4.608h4.158l-1.242-3.348-.18-.45c-.06-.192-.126-.396-.198-.612l-.216-.684a40.935 40.935 0 0 0-.198-.612h-.09c-.072.24-.162.516-.27.828a25.662 25.662 0 0 1-.522 1.53l-1.242 3.348Zm9.9 4.608V14.652h4.95c1.248 0 2.316.222 3.204.666.888.444 1.572 1.122 2.052 2.034.48.9.72 2.058.72 3.474 0 1.404-.24 2.562-.72 3.474-.48.912-1.164 1.59-2.052 2.034-.888.444-1.956.666-3.204.666h-4.95Zm2.34-1.998h2.61c.576 0 1.086-.084 1.53-.252a2.886 2.886 0 0 0 1.116-.738c.3-.336.528-.75.684-1.242.156-.504.234-1.086.234-1.746v-.378c0-.672-.078-1.254-.234-1.746-.156-.504-.384-.918-.684-1.242a2.796 2.796 0 0 0-1.116-.756c-.444-.168-.954-.252-1.53-.252h-2.61v8.352ZM179.121 27V14.652h9.63v1.998h-7.29v3.042h6.498v1.998h-6.498v3.312h7.398V27h-9.738Zm-49.905 22V36.652h4.95c1.248 0 2.316.222 3.204.666.888.444 1.572 1.122 2.052 2.034.48.9.72 2.058.72 3.474 0 1.404-.24 2.562-.72 3.474-.48.912-1.164 1.59-2.052 2.034-.888.444-1.956.666-3.204.666h-4.95Zm2.34-1.998h2.61c.576 0 1.086-.084 1.53-.252a2.886 2.886 0 0 0 1.116-.738c.3-.336.528-.75.684-1.242.156-.504.234-1.086.234-1.746v-.378c0-.672-.078-1.254-.234-1.746-.156-.504-.384-.918-.684-1.242a2.796 2.796 0 0 0-1.116-.756c-.444-.168-.954-.252-1.53-.252h-2.61v8.352ZM140.77 49l4.806-12.348h2.952L153.352 49h-2.538l-.99-2.628h-5.652l-.99 2.628h-2.412Zm4.14-4.608h4.158l-1.242-3.348-.18-.45c-.06-.192-.126-.396-.198-.612l-.216-.684a40.935 40.935 0 0 0-.198-.612h-.09c-.072.24-.162.516-.27.828a25.662 25.662 0 0 1-.522 1.53l-1.242 3.348ZM156.305 49V38.668h-3.942v-2.016h10.242v2.016h-3.96V49h-2.34Zm5.313 0 4.806-12.348h2.952L174.2 49h-2.538l-.99-2.628h-5.652L164.03 49h-2.412Zm4.14-4.608h4.158l-1.242-3.348-.18-.45c-.06-.192-.126-.396-.198-.612l-.216-.684a40.935 40.935 0 0 0-.198-.612h-.09c-.072.24-.162.516-.27.828a25.662 25.662 0 0 1-.522 1.53l-1.242 3.348Zm9.9 4.608V36.652h6.732c.66 0 1.248.126 1.764.378.528.252.942.606 1.242 1.062.3.456.45.99.45 1.602 0 .468-.09.894-.27 1.278-.18.384-.426.708-.738.972-.3.252-.642.444-1.026.576v.072a3 3 0 0 1 1.224.558c.36.264.642.606.846 1.026.204.408.306.882.306 1.422 0 .768-.174 1.404-.522 1.908a3.096 3.096 0 0 1-1.368 1.134c-.564.24-1.2.36-1.908.36h-6.732Zm2.34-1.998h4.086c.492 0 .894-.132 1.206-.396.324-.276.486-.702.486-1.278 0-.336-.066-.63-.198-.882a1.3 1.3 0 0 0-.612-.576c-.264-.144-.606-.216-1.026-.216h-3.942v3.348Zm0-5.31h3.78c.36 0 .66-.066.9-.198a1.28 1.28 0 0 0 .558-.54c.132-.228.198-.48.198-.756 0-.528-.144-.918-.432-1.17-.276-.252-.642-.378-1.098-.378h-3.906v3.042ZM187.089 49l4.806-12.348h2.952L199.671 49h-2.538l-.99-2.628h-5.652l-.99 2.628h-2.412Zm4.14-4.608h4.158l-1.242-3.348-.18-.45c-.06-.192-.126-.396-.198-.612l-.216-.684a40.935 40.935 0 0 0-.198-.612h-.09c-.072.24-.162.516-.27.828a25.662 25.662 0 0 1-.522 1.53l-1.242 3.348Zm14.507 4.824a8.701 8.701 0 0 1-1.962-.216 5.43 5.43 0 0 1-1.656-.702 3.685 3.685 0 0 1-1.134-1.188c-.276-.48-.414-1.044-.414-1.692v-.216c.012-.072.018-.126.018-.162h2.358c0 .024-.006.072-.018.144v.162c0 .396.114.738.342 1.026.228.276.558.492.99.648.432.144.942.216 1.53.216a6.68 6.68 0 0 0 1.044-.072c.312-.048.576-.114.792-.198.228-.096.414-.204.558-.324.144-.132.246-.276.306-.432.072-.156.108-.324.108-.504 0-.348-.108-.636-.324-.864-.216-.228-.51-.42-.882-.576a8.354 8.354 0 0 0-1.242-.414c-.456-.132-.93-.264-1.422-.396-.48-.132-.954-.288-1.422-.468a6.486 6.486 0 0 1-1.242-.684 2.984 2.984 0 0 1-.864-.99c-.216-.408-.324-.894-.324-1.458 0-.576.12-1.08.36-1.512.252-.432.6-.786 1.044-1.062a4.92 4.92 0 0 1 1.584-.63 8.4 8.4 0 0 1 1.962-.216c.66 0 1.278.072 1.854.216a4.493 4.493 0 0 1 1.548.648 3.1 3.1 0 0 1 1.044 1.116c.252.444.378.978.378 1.602v.216h-2.322v-.18a1.27 1.27 0 0 0-.324-.882c-.204-.24-.498-.426-.882-.558-.372-.132-.81-.198-1.314-.198-.54 0-1.002.054-1.386.162-.384.096-.678.246-.882.45a.948.948 0 0 0-.306.72c0 .3.108.552.324.756.216.204.504.378.864.522.372.144.786.276 1.242.396.468.12.942.252 1.422.396.492.132.966.288 1.422.468.468.18.882.408 1.242.684.372.264.666.594.882.99.216.396.324.87.324 1.422 0 .924-.228 1.668-.684 2.232-.444.564-1.062.972-1.854 1.224-.78.252-1.674.378-2.682.378Zm7.398-.216V36.652h9.63v1.998h-7.29v3.042h6.498v1.998h-6.498v3.312h7.398V49h-9.738Z"/>
   <defs>
      <clipPath id="a">
         <path fill="#fff" d="M0 0h111.848v64H0z"/>
      </clipPath>
   </defs>
</svg>