<svg
  xmlns="http://www.w3.org/2000/svg"
  fill="none"
  viewBox="0 0 32 32"
  width="32"
  height="32"
>
  <path
    fill="#E05929"
    d="M16 0A16.001 16.001 0 0 0 4.686 27.314 16 16 0 1 0 16 0Zm.198 24.17c.14.075.308.075.448 0 .277-.201.528-.434.75-.695.32-.38.6-.793.918-1.222l.444.269c-.64 1.068-1.299 2.06-2.278 2.803a3.54 3.54 0 0 1-1.786.745c-1.526.173-2.502-.867-2.137-2.364.32-1.316.726-2.612 1.097-3.917.372-1.306.746-2.663 1.124-3.987.03-.131.052-.264.067-.397a.784.784 0 0 0-.707-.98 6.769 6.769 0 0 0-.698-.025c.004-.077.016-.153.035-.227l.045-.32 5.517-.883-.384 1.337-.086.32-2.41 8.413c-.082.22-.135.45-.157.685 0 .17.072.331.198.445Zm1.325-14.25a1.99 1.99 0 0 1-1.977-2.01 1.987 1.987 0 1 1 3.974 0 2.012 2.012 0 0 1-1.997 2.01Z"
  />
</svg>