<svg
  xmlns="http://www.w3.org/2000/svg"
  viewBox="0 0 19 18"
  fill="none"
>
  <path
    fill="currentColor"
    fill-rule="evenodd"
    d="M10.717 9.146a.963.963 0 1 1-1.363-1.363l5.853-5.854h-3.67a.965.965 0 0 1 0-1.929h5.999c.532 0 .964.432.964.964v6a.965.965 0 0 1-1.929 0V3.293l-5.854 5.853ZM2.43 4.179a2.25 2.25 0 0 1 2.25-2.25H6.82a.965.965 0 0 0 0-1.929H4.68A4.179 4.179 0 0 0 .5 4.18v9.643A4.179 4.179 0 0 0 4.679 18h9.642a4.18 4.18 0 0 0 4.179-4.178v-2.143a.965.965 0 0 0-1.929 0v2.143a2.25 2.25 0 0 1-2.25 2.25H4.68a2.25 2.25 0 0 1-2.25-2.25V4.179Z"
    clip-rule="evenodd"
  />
</svg>