<svg
  xmlns="http://www.w3.org/2000/svg"
  viewBox="0 0 18 18"
  fill="none"
>
  <path
    fill="currentColor"
    d="M9.002 13.5a.892.892 0 0 0 .637-.267l5.397-5.397a.9.9 0 1 0-1.272-1.273L9.9 10.428V.9a.9.9 0 0 0-1.8 0v9.527L4.236 6.564a.9.9 0 0 0-1.272 1.273l5.4 5.4a.88.88 0 0 0 .627.263h.011Z"
  />
  <path
    fill="currentColor"
    d="M1.8 12.6a.9.9 0 0 0-1.8 0v2.7A2.7 2.7 0 0 0 2.7 18h12.6a2.7 2.7 0 0 0 2.7-2.7v-2.7a.9.9 0 0 0-1.8 0v2.7a.9.9 0 0 1-.9.9H2.7a.9.9 0 0 1-.9-.9v-2.7Z"
  />
</svg>