<svg xmlns="http://www.w3.org/2000/svg" fill="none" viewBox="0 0 111 32">
  <g fill="#fff" clip-path="url(#a)">
    <path d="M107.222 9.45c-.057.849-.312 1.471-.736 1.867-.424.396-1.104.595-1.981.595-.99 0-1.697-.34-2.15-1.047-.453-.68-.679-1.783-.679-3.282V6.536c0-1.443.255-2.49.736-3.17.481-.678 1.188-1.018 2.15-1.018.877 0 1.528.198 1.952.595.425.396.679 1.046.736 1.952h2.858c-.142-1.556-.708-2.745-1.698-3.622C107.42.424 106.146 0 104.534 0c-1.16 0-2.179.283-3.056.82-.877.538-1.556 1.33-2.009 2.349-.48 1.018-.707 2.178-.707 3.537v.848c0 2.094.51 3.735 1.528 4.923 1.018 1.189 2.405 1.783 4.187 1.783 1.613 0 2.943-.425 3.933-1.273.99-.85 1.556-2.037 1.641-3.537h-2.829ZM82.352.198v13.864h2.857V10.27l-.283-6.536 3.735 10.327h1.952l3.735-10.327-.283 6.536v3.79h2.858V.199H93.16l-3.537 10.044L86.058.198h-3.707ZM77.796 9.45c-.056.849-.311 1.471-.735 1.867-.425.396-1.104.595-1.98.595-.991 0-1.699-.34-2.151-1.047-.453-.68-.68-1.783-.68-3.282V6.536c0-1.443.255-2.49.736-3.17.481-.678 1.189-1.018 2.15-1.018.878 0 1.529.198 1.953.595.424.396.679 1.046.736 1.952h2.857c-.141-1.556-.707-2.745-1.697-3.622C77.995.424 76.72 0 75.108 0c-1.16 0-2.178.283-3.055.82-.877.538-1.556 1.33-2.01 2.349-.48 1.018-.707 2.178-.707 3.537v.848c0 2.094.51 3.735 1.528 4.923 1.019 1.189 2.405 1.783 4.188 1.783 1.612 0 2.942-.425 3.933-1.273.99-.85 1.556-2.037 1.64-3.537h-2.829ZM61.81.198h-2.433l-2.263 9.846L55.246.198H52.39l3.084 13.864h2.886l2.263-9.28 2.264 9.28h2.886L68.856.198h-2.858l-1.868 9.874L61.81.198ZM35.356 11.205a4.202 4.202 0 0 1-3-4.018c0-.34.03-.679.114-.99l2.745.34s1.046.056 1.018 1.895c-.056 1.81-.877 2.773-.877 2.773ZM37.79 11.205c1.725-.51 2.998-2.122 2.998-4.018 0-.34-.028-.679-.113-.99l-2.744.34s-1.047.056-1.019 1.895c.057 1.81.877 2.773.877 2.773ZM36.573 4.16c.34 0 .65.282.65.65 0 .283-.198.481-.424.594-.028.029-.057.029-.057.085 0 .057.142.057.198.085L40.62 6a4.201 4.201 0 0 0-4.046-3.028A4.227 4.227 0 0 0 32.527 6l3.678-.425c.056 0 .198-.028.198-.085 0-.056-.029-.056-.057-.085-.226-.113-.424-.34-.424-.594.028-.368.311-.65.65-.65ZM38.242 14.176l.255-.142s-1.189-1.613-3.82-1.613c-1.358 0-2.066.538-3 .538 0 0-.395.057-.763-.198 0 0 .452.65 2.093.65 1.189 0 2.066-.707 2.887-.707 1.16.029 2.008 1.075 2.348 1.472Z"/>
    <path d="m34.592 14.176-.255-.142s1.189-1.613 3.82-1.613c1.358 0 2.066.538 3 .538 0 0 .395.057.763-.198 0 0-.453.65-2.094.65-1.188 0-2.065-.707-2.886-.707-1.131.029-2.008 1.075-2.348 1.472ZM33.319 12.28c-.057.113-.566-.028-.906.085-.396.113-2.405.367-3.282-1.755 0 0 .85.906 1.5.962.65.057 1.358.227 1.98.566l.142.029s-.028-.057-.085-.085c-.085-.057-.707-.255-1.018-1.245-.142-.51-.114-.877-.199-1.16 0 0 .68.764.962 1.245.312.509.34 1.046.906 1.358Z"/>
    <path d="M31.253 11.233c-.056.056-.17-.028-.226-.057-.057-.028-.396-.17-.962-.367-.566-.199-1.613-1.104-1.528-2.632 0 0 .142.566.594.962.425.368.594.425.85.736.254.311.848 1.018.876 1.018.029 0 .029-.056-.028-.085-.057-.028-.198-.424-.311-.565-.114-.142-.396-1.047.028-2.15 0 0 .48.82.453 1.64-.029.82-.057.623.141 1.302.028 0 .142.17.113.198Z"/>
    <path d="M29.952 9.224c-.028.029-.142-.141-.255-.311-.085-.17-.735-.849-.82-.99-.085-.142-.82-1.019-.255-2.349 0 0 .057-.028.057.283 0 .312.283.99.509 1.302.226.283.453.764.48 1.273 0 0 .03.085.058.113.028.029.028-.085.028-.085s-.029-.452-.029-.792c0-.311.142-.849.453-1.16 0 0 .142-.141.227-.34 0 0 .056-.113.141-.197 0 0 .057.905-.255 1.725-.31.82-.396.962-.367 1.415.028 0 .028.113.028.113Z"/>
    <path d="M29.443 6.791c-.029 0-.057-.113-.057-.198-.028-.085-.113-.594-.17-.679a3.14 3.14 0 0 1-.311-1.188c-.028-.595.255-1.387.849-2.01 0 0-.029.199-.17.595-.141.424-.056.792-.056.877.028.057.056.538.056.764 0 .17-.056.792-.085.905 0 0-.028.085.029.085.056 0 .056-.056.056-.056s.028-.481.396-.906c.368-.424.99-.707 1.104-.905 0 0-.057.679-.793 1.471-.679.707-.48.34-.679.934 0 0-.084.226-.084.254-.057.057-.085.057-.085.057Z"/>
    <path d="M29.839 4.47s-.029-.084.113-.31c.113-.198 0-.595.141-1.132.142-.538.453-1.471 1.528-2.037l-.17.17c-.056.084-.34.65-.424 1.018-.085.396-.453 1.047-.594 1.188-.142.142-.085.17-.085.17s.057-.028.142-.113c.056-.113.424-.51.82-.594a9.89 9.89 0 0 0 1.075-.311s-.679.707-1.301 1.046c-.623.368-.708.255-1.075.736 0 0-.142.17-.17.17Z"/>
    <path d="M31.338 2.405s0-.056.114-.17c.113-.113.226-.424.424-.735.198-.311.65-1.104 1.839-1.273 0 0-.368.254-.424.34a7.654 7.654 0 0 1-.566.706c-.17.17-.594.481-.736.566 0 0-.085.057-.056.085.028.028.084-.028.084-.028s.425-.311.906-.34c.51-.028 1.018 0 1.103.029 0 0-.452.31-1.584.509-1.104.198-.906.198-1.075.311.056 0 0 .028-.029 0Z"/>
    <path d="M33.319 1.104s.028-.057.198-.113c.17-.057.17-.227.707-.51.538-.283 1.104-.424 1.698-.17 0 0-.255.029-.283.057-.028.028-.453.113-.566.198-.113.057-.707.34-.962.368-.255.057-.113.057-.113.057s.056.028.113.028.594-.057.934.057c.34.113.34.17.48.226.142.056.312.085.34.141 0 0-.34.029-.566.029-.198 0-.764-.057-1.018-.17-.255-.113-.566-.17-.68-.142-.112-.028-.226-.028-.282-.056Z"/>
    <path d="M35.526.85s.028-.03.17-.057c.14-.029.198-.114.565-.198.368-.085.934-.142 1.443.198h-.396c-.056 0-.679.113-.82.113-.142 0-.425-.057-.453-.028-.028.056.255.113.311.113.057.028.255.028.51.283.254.254.452.396.48.424 0 0-.764-.17-.962-.283-.198-.113-.537-.453-.594-.453-.028-.056-.254-.113-.254-.113Z"/>
    <path d="M37.336 1.16s.481-.028.85.198c.367.227.65.51.678.708 0 0-.198-.17-.34-.198-.14-.029-.508-.255-.593-.283-.057-.057-.51-.368-.595-.425ZM39.628 12.365s.057-.057.311-.283c.227-.198.283-.51.566-.962.255-.453.481-.764.99-1.245l-.113.453c0 .113-.084.707-.396 1.075-.283.34-.311.424-.65.65 0 0-.142.085-.114.114 0 .028.227 0 .227 0s.254-.085.34-.142c.084-.056.424-.226.565-.283.142-.056.255-.113.566-.198.311-.085 1.443-.367 1.867-1.103 0 0-.141.424-.283.622-.17.198-1.075 1.415-2.376 1.387 0 0-.51-.029-.764-.085-.255-.057-.368-.057-.396-.029-.057.029-.283.057-.34.029Z"/>
    <path d="M42.514 8.007s-.48.764-.594 1.84c-.113 1.075.085.763-.113 1.244 0 0-.057.113-.028.142.028 0 .113-.057.452-.255.34-.198.68-.141 1.415-.849.736-.707.877-2.093.905-2.207 0 0-.113.114-.17.283a.97.97 0 0 1-.197.368c-.029.028-.82.906-.906.962-.085.085-.566.65-.65.82-.114.17-.397.453-.453.425 0 0 0-.057.028-.113.028-.057.255-.34.34-.68.084-.339.113-.565.113-.763 0-.226-.142-1.047-.142-1.217Z"/>
    <path d="M43.165 9.054s-.057-.113 0-.198c.028-.056.056-.424-.085-.735-.141-.311-.453-1.132-.424-1.698.028-.566.084-.65.084-.65s.142.452.199.537c.056.085.509.905.48 1.358-.028.453-.056.594-.028.594.029 0 .085-.056.085-.113s.085-.368.227-.736c.14-.367.735-1.16.877-1.697 0 0 .198.934-.34 1.81-.51.878-.566.68-.792 1.076-.227.424-.255.452-.283.452Z"/>
    <path d="M43.646 6.593c-.028 0-.028-.368-.113-.481-.085-.113-.906-1.075-1.075-2.01 0 0 .509.51.594.567.085.056.424.396.537.679.113.283.085.537.113.566.029 0 .029-.34.029-.34s0-.65.056-.962c.057-.311.198-.82.142-1.103 0 0 .311.48.283 1.16-.029.679-.312 1.216-.34 1.301-.028.085-.141.425-.141.481 0 .057-.085.142-.085.142Z"/>
    <path d="M42.684 1.726s1.047.623.877 2.716c0 0 0 .085-.057 0-.056-.113-.283-.396-.396-.452-.113-.057-1.047-.623-1.443-1.5 0 0 .057-.028.142.057.085.084.368.226.424.254.057.029.368.113.623.368.254.255.34.453.396.623 0 0 .056.056.028-.114-.057-.141-.057-.254-.17-.452a2.369 2.369 0 0 1-.254-.793c0-.226-.057-.565-.17-.707Z"/>
    <path d="M42.514 2.462s.029-.142-.085-.34c-.113-.198-.028-.424-.34-.934-.169-.282-.791-.509-.791-.509s.17.255.283.396c.113.142.141.255.198.312.028.056.254.282.34.396a.214.214 0 0 1 .056.113c0 .028-.085-.028-.113-.057-.029-.028-.396-.311-.651-.368-.255-.056-.708-.084-.82-.141 0 0 .537.48 1.131.65.594.17.792.482.792.482Z"/>
    <path d="M41.27 1.189S40.731.453 39.74.453c0 0 .057.057.17.085.113.028.311.226.396.283.113.057.34.226.962.368ZM11.448.17v9.139c0 .792-.142 1.5-.396 2.122a3.805 3.805 0 0 1-1.104 1.528 4.401 4.401 0 0 1-1.669.933 7.255 7.255 0 0 1-2.122.312 7.255 7.255 0 0 1-2.122-.312 4.699 4.699 0 0 1-1.698-.933 4.239 4.239 0 0 1-1.103-1.528 5.562 5.562 0 0 1-.396-2.122V.169h2.858v9.14c0 .905.226 1.556.65 1.98.425.425 1.047.623 1.811.623s1.386-.198 1.81-.623c.425-.424.652-1.075.652-1.98V.169h2.829ZM25.029 14.005H22.17l-5.545-9.11v9.11h-2.858V.17h2.858l5.573 9.11V.17h2.83v13.835ZM2.903 22.946a2.075 2.075 0 0 1-1.47-.566c-.369-.368-.567-.877-.567-1.5v-.113c0-.424.085-.792.227-1.131.17-.34.396-.594.679-.764.283-.17.622-.255.99-.255.566 0 .99.17 1.33.538.31.368.48.877.48 1.528v.452H1.97c.028.283.141.481.31.651.17.17.397.255.68.255.424 0 .736-.142.99-.453l.538.622c-.17.227-.396.425-.651.566a2.6 2.6 0 0 1-.934.17Zm-.141-3.423a.725.725 0 0 0-.538.226c-.141.141-.226.368-.254.65h1.528v-.084c0-.255-.057-.425-.199-.566-.113-.17-.31-.226-.537-.226ZM6.242 18.702l.028.481a1.408 1.408 0 0 1 1.16-.566c.425 0 .764.142.962.396.198.255.311.651.311 1.16v2.688H7.6v-2.66c0-.226-.057-.396-.141-.509-.085-.113-.227-.17-.453-.17a.731.731 0 0 0-.68.397v2.942H5.224v-4.159h1.019ZM11.137 21.503l.764-2.8h1.132l-1.387 4.158H10.6l-1.386-4.159h1.132l.792 2.801ZM13.542 17.627c0-.17.056-.311.17-.424a.597.597 0 0 1 .452-.17c.198 0 .34.056.453.17.113.113.17.254.17.424 0 .17-.057.311-.17.424a.597.597 0 0 1-.453.17.597.597 0 0 1-.453-.17.576.576 0 0 1-.17-.424Zm1.16 5.234h-1.104v-4.159h1.104v4.16ZM17.956 19.749c-.142-.028-.283-.028-.396-.028-.425 0-.68.141-.821.424v2.716h-1.104v-4.159h1.02l.027.51c.227-.397.51-.567.906-.567.113 0 .226.029.34.057l.028 1.047ZM18.21 20.74c0-.425.085-.793.226-1.104a1.76 1.76 0 0 1 .68-.764c.282-.17.622-.255 1.018-.255.538 0 .99.17 1.358.51.34.339.538.82.594 1.414v.283c0 .65-.17 1.16-.537 1.528-.368.368-.82.566-1.415.566-.594 0-1.047-.198-1.415-.566-.367-.368-.537-.905-.537-1.556v-.057h.028Zm1.104.084c0 .396.084.707.226.905a.751.751 0 0 0 .622.312.752.752 0 0 0 .623-.311c.141-.199.226-.538.226-.99 0-.397-.085-.68-.226-.906-.17-.198-.368-.311-.65-.311a.751.751 0 0 0-.623.31c-.142.227-.198.538-.198.991ZM23.812 18.702l.028.481c.284-.368.68-.566 1.16-.566.425 0 .765.142.963.396.198.255.31.651.31 1.16v2.688H25.17v-2.66c0-.226-.056-.396-.141-.509-.085-.113-.227-.17-.481-.17a.731.731 0 0 0-.68.397v2.942h-1.103v-4.159h1.047ZM28.198 18.702l.028.453c.283-.368.68-.538 1.16-.538.538 0 .877.198 1.075.623.283-.425.708-.623 1.217-.623.452 0 .764.142.99.396.226.255.311.651.311 1.189v2.66h-1.046v-2.66c0-.227-.057-.397-.142-.51-.085-.113-.255-.17-.481-.17-.34 0-.566.17-.679.482v2.857h-1.104v-2.66c0-.254-.056-.424-.141-.537-.085-.113-.255-.17-.48-.17a.732.732 0 0 0-.68.396v2.943h-1.103v-4.13h1.075ZM35.78 22.946a2.075 2.075 0 0 1-1.47-.566c-.369-.368-.567-.877-.567-1.5v-.113c0-.424.085-.792.227-1.131.17-.34.396-.594.679-.764.283-.17.622-.255.99-.255.566 0 .99.17 1.33.538.311.368.48.877.48 1.528v.452h-2.602c.028.283.141.481.311.651.17.17.396.255.68.255.423 0 .735-.142.99-.453l.537.622c-.17.227-.396.425-.65.566-.284.114-.595.17-.934.17Zm-.113-3.423a.725.725 0 0 0-.537.226c-.142.141-.227.368-.255.65h1.528v-.084c0-.255-.057-.425-.198-.566-.142-.17-.311-.226-.538-.226ZM39.147 18.702l.029.481c.283-.368.679-.566 1.16-.566.424 0 .764.142.962.396.198.255.311.651.311 1.16v2.688h-1.104v-2.66c0-.226-.056-.396-.141-.509-.085-.113-.255-.17-.51-.17a.731.731 0 0 0-.678.397v2.942h-1.104v-4.159h1.075ZM43.816 17.684v1.018h.707v.82h-.707v2.066c0 .142.028.255.085.34.056.056.17.113.34.113.112 0 .226 0 .31-.029v.85c-.226.056-.424.113-.65.113-.764 0-1.16-.397-1.16-1.189v-2.263h-.623v-.82h.594v-1.02h1.104ZM4.686 28.322c0 .65-.142 1.16-.425 1.528-.283.368-.679.566-1.16.566-.424 0-.735-.142-.99-.453v1.952H1.008V26.2h1.018l.028.396a1.317 1.317 0 0 1 1.047-.48c.51 0 .906.197 1.16.565.283.368.425.905.425 1.584v.057Zm-1.104-.085c0-.396-.056-.679-.198-.905a.7.7 0 0 0-.594-.311c-.34 0-.566.141-.707.396v1.697c.141.283.368.425.707.425.538 0 .792-.425.792-1.302ZM7.713 27.247c-.141-.028-.283-.028-.396-.028-.424 0-.679.141-.82.424v2.716H5.393V26.2h1.019l.028.51c.226-.397.51-.566.905-.566.114 0 .227.028.34.056l.028 1.047ZM7.968 28.237c0-.424.085-.792.226-1.103.17-.311.368-.566.68-.764.282-.17.622-.255 1.018-.255.537 0 .99.17 1.358.51.34.339.537.82.594 1.414v.283c0 .65-.17 1.16-.538 1.528-.34.396-.82.566-1.414.566s-1.047-.198-1.415-.566c-.34-.396-.538-.905-.538-1.556v-.057h.029Zm1.075.085c0 .396.085.707.226.905a.751.751 0 0 0 .623.312.752.752 0 0 0 .622-.312c.142-.198.227-.537.227-.99 0-.396-.085-.679-.227-.905-.141-.227-.368-.311-.622-.311a.751.751 0 0 0-.623.31c-.141.199-.226.538-.226.991ZM12.382 28.237c0-.65.141-1.16.452-1.556a1.463 1.463 0 0 1 1.217-.594c.453 0 .792.17 1.047.48l.056-.395h.99v4.017c0 .368-.084.68-.254.962-.17.283-.396.482-.68.623-.282.141-.65.198-1.046.198-.311 0-.594-.057-.877-.17a1.456 1.456 0 0 1-.65-.48l.48-.68c.283.311.594.453.99.453.283 0 .51-.085.68-.226.17-.17.254-.368.254-.68v-.198a1.284 1.284 0 0 1-.99.425c-.481 0-.877-.198-1.188-.594-.312-.396-.453-.906-.453-1.556v-.029h-.028Zm1.103.085c0 .368.085.68.226.877.142.227.34.311.623.311.34 0 .566-.141.707-.367v-1.755c-.141-.254-.368-.367-.707-.367a.71.71 0 0 0-.623.34c-.141.197-.226.537-.226.961ZM19.314 27.247c-.142-.028-.284-.028-.397-.028-.424 0-.679.141-.82.424v2.716h-1.104V26.2h1.019l.028.51c.227-.397.51-.566.906-.566.113 0 .226.028.34.056l.027 1.047ZM22.115 30.36A1.401 1.401 0 0 1 22 29.99c-.254.312-.594.453-1.018.453-.396 0-.736-.113-.99-.368a1.176 1.176 0 0 1-.397-.905c0-.453.17-.792.481-1.019.312-.226.793-.367 1.387-.367h.51v-.227a.72.72 0 0 0-.142-.453c-.085-.113-.255-.17-.453-.17-.17 0-.34.057-.425.142a.456.456 0 0 0-.17.368h-1.103c0-.255.085-.453.227-.679.141-.198.34-.368.622-.481.255-.113.566-.17.905-.17.51 0 .906.142 1.189.396.283.255.453.623.453 1.076v1.81c0 .396.056.708.17.906v.056h-1.132Zm-.877-.765c.17 0 .31-.028.452-.113a1.01 1.01 0 0 0 .311-.283v-.707h-.396c-.537 0-.849.198-.877.566v.056c0 .142.057.255.142.34.056.085.198.141.367.141ZM24.972 26.2l.029.453c.282-.368.679-.538 1.16-.538.537 0 .877.198 1.075.623.283-.425.707-.623 1.216-.623.453 0 .764.142.99.396.227.255.312.651.312 1.189v2.66H28.65V27.7c0-.227-.056-.396-.141-.51-.085-.113-.255-.17-.481-.17-.34 0-.566.17-.679.482v2.857h-1.104V27.7c0-.254-.056-.424-.14-.537-.086-.113-.256-.17-.482-.17a.732.732 0 0 0-.679.396v2.943h-1.103v-4.13h1.131ZM31.706 26.2l.028.453c.283-.368.68-.538 1.16-.538.538 0 .878.198 1.075.623.283-.425.708-.623 1.217-.623.453 0 .764.142.99.396.227.255.312.651.312 1.189v2.66h-1.104V27.7c0-.227-.056-.396-.141-.51-.085-.113-.255-.17-.481-.17-.34 0-.566.17-.68.482v2.857h-1.018V27.7c0-.254-.056-.424-.141-.537-.085-.113-.255-.17-.481-.17a.732.732 0 0 0-.68.396v2.943H30.66v-4.13h1.047ZM39.289 30.444a2.075 2.075 0 0 1-1.471-.566c-.368-.367-.566-.877-.566-1.5v-.113c0-.424.085-.792.226-1.131.17-.34.396-.594.68-.764.282-.17.622-.255.99-.255.565 0 .99.17 1.33.538.31.368.48.877.48 1.528v.452h-2.603c.028.283.142.481.311.651.17.17.397.255.68.255.424 0 .735-.142.99-.453l.537.623c-.17.226-.396.424-.65.565-.283.085-.595.17-.934.17Zm-.113-3.423a.724.724 0 0 0-.538.226c-.141.141-.226.368-.255.65h1.528v-.084c0-.255-.056-.425-.198-.566-.141-.17-.311-.226-.537-.226Z"/>
  </g>
  <defs>
    <clipPath id="a">
      <path fill="#fff" d="M.81 0h109.298v32H.81z"/>
    </clipPath>
  </defs>
</svg>